PathFileType	4	(X/Y/Z)	/Users/niels/Desktop/University/Third Semester/Perception and Action/Exam/Gymnastics Motion Tracking/Code for Gym Tracking/Scripts/Analyzed Data/kraft_bad_id5_2_nmspeed_Sports2D/kraft_bad_id5_2_nmspeed_Sports2D_px_person00.trc
DataRate	CameraRate	NumFrames	NumMarkers	Units	OrigDataRate	OrigDataStartFrame	OrigNumFrames
49.54128440366972	49.54128440366972	12	22	m	49.54128440366972	81	109
Frame#	Time	Hip			RHip			RKnee			RAnkle			RBigToe			RSmallToe			RHeel			LHip			LKnee			LAnkle			LBigToe			LSmallToe			LHeel			Neck			Head			Nose			RShoulder			RElbow			RWrist			LShoulder			LElbow			LWrist		
		X1	Y1	Z1	X2	Y2	Z2	X3	Y3	Z3	X4	Y4	Z4	X5	Y5	Z5	X6	Y6	Z6	X7	Y7	Z7	X8	Y8	Z8	X9	Y9	Z9	X10	Y10	Z10	X11	Y11	Z11	X12	Y12	Z12	X13	Y13	Z13	X14	Y14	Z14	X15	Y15	Z15	X16	Y16	Z16	X17	Y17	Z17	X18	Y18	Z18	X19	Y19	Z19	X20	Y20	Z20	X21	Y21	Z21	X22	Y22	Z22
81	1.6350000000000002	1.4595110439138714	-0.5246607217459615	0.0	1.4652166555657293	-0.5434864726179467	0.0	1.6490424136094093	-0.574772544143973	0.0	1.6830102298795098	-0.7224380291281767	0.0	1.751500698397629	-0.7222952200295004	0.0	1.7438173073571883	-0.7387410030093301	0.0	1.6779952508803326	-0.7460943663386905	0.0	1.4639769069716777	-0.5091327576988359	0.0	1.6077775835334507	-0.4567239339214195	0.0	1.6701938595357522	-0.5886350940534821	0.0	1.728607303997128	-0.5901320090030774	0.0	1.7187041049082792	-0.5848547828083379	0.0	1.6723324975744656	-0.610614364611653	0.0	1.272487932279059	-0.574066965433979	0.0	1.1878251263597916	-0.5779051180552527	0.0	1.2398540946083485	-0.5564944047054472	0.0	1.276578717919842	-0.5854424399634688	0.0	1.30541507082756	-0.6161340174270014	0.0	1.3150673120998864	-0.6765255912333614	0.0	1.2703498643532898	-0.5579971485004152	0.0	1.251501139897687	-0.5783326532005378	0.0	1.2251625862255764	-0.6022783260826412	0.0
82	1.6551851851851853	1.4779918246421466	-0.5410684749513153	0.0	1.4809567372741586	-0.559552257006036	0.0	1.662574898978888	-0.6041474459235858	0.0	1.6907738399311907	-0.7537964691586472	0.0	1.7599744330577252	-0.7561908844247708	0.0	1.7496371157074397	-0.7714463260455118	0.0	1.6845613323936433	-0.7773295826024461	0.0	1.48364035471574	-0.5263400572712709	0.0	1.6349659229845652	-0.4940490486623715	0.0	1.684844523451904	-0.631367102712798	0.0	1.7429915650846002	-0.6400271544000437	0.0	1.7319525684652723	-0.6323674118465135	0.0	1.6844908976865425	-0.6534252286030162	0.0	1.2873509627075916	-0.5679622546491653	0.0	1.2020208978701155	-0.5574912865560812	0.0	1.2571229854504966	-0.5440544757213138	0.0	1.288819066612992	-0.5805651434186795	0.0	1.3277727141449653	-0.6089104770954364	0.0	1.344647881499051	-0.665838354733292	0.0	1.2875822023584254	-0.5522532397023919	0.0	1.2793631146042723	-0.570088701195887	0.0	1.2549599524928525	-0.5883785663998881	0.0
83	1.6753703703703706	1.495922819863561	-0.558626165655175	0.0	1.4963503391655668	-0.5763550650099614	0.0	1.6740999490318167	-0.6341021278868941	0.0	1.6984475870476718	-0.7846086030155377	0.0	1.7686009407993797	-0.7881378761376622	0.0	1.7549509988580203	-0.802056682198662	0.0	1.6913686208238035	-0.8078213349199204	0.0	1.502542577333153	-0.5448414653036161	0.0	1.6582355866319896	-0.533625938157247	0.0	1.697137917062251	-0.675058857053796	0.0	1.7558113812154237	-0.6894862734960618	0.0	1.7434432055941587	-0.6795128382128293	0.0	1.69400132974614	-0.6969454609271108	0.0	1.303998045552211	-0.562769499389799	0.0	1.2199455684876408	-0.5386222015131301	0.0	1.2771454004210134	-0.5330673083676559	0.0	1.303641939383229	-0.5765353933320853	0.0	1.351268190350981	-0.6052350705394219	0.0	1.3755507401119944	-0.6593797845872192	0.0	1.3061569665704191	-0.5480204686698075	0.0	1.3095974248504523	-0.566428929289138	0.0	1.287560652118484	-0.5790800412346957	0.0
84	1.6955555555555557	1.513262729720351	-0.5770804295936207	0.0	1.511545350397935	-0.5936687785545729	0.0	1.6838247747221056	-0.664279930130344	0.0	1.7058789864580548	-0.8146425499629407	0.0	1.7775112120335759	-0.8179887431423885	0.0	1.7597211712853766	-0.8303147119361814	0.0	1.698283852774681	-0.8372539271304139	0.0	1.520635319539384	-0.5643924073960926	0.0	1.6774920248709169	-0.5746953296084516	0.0	1.7073541762058508	-0.719139998460309	0.0	1.767807071452363	-0.7372394588775211	0.0	1.7538647626329567	-0.7255476646639585	0.0	1.7013916011139103	-0.7405882841258619	0.0	1.3225745202111618	-0.5585133485271314	0.0	1.2416585878424673	-0.5217470370135185	0.0	1.300010724616622	-0.5236247149206119	0.0	1.3212613815643683	-0.573360123220832	0.0	1.3754124101670868	-0.6051811155020086	0.0	1.4070540252641508	-0.6577487721309626	0.0	1.3260987303340614	-0.5454622721473846	0.0	1.3409618254947873	-0.567504558131011	0.0	1.3210168952407262	-0.5744129184869443	0.0
85	1.715740740740741	1.5299872571403204	-0.596121272151183	0.0	1.5266342227176237	-0.6112159300707037	0.0	1.6920137197886258	-0.6942415607519075	0.0	1.7127980776629292	-0.8436333721795186	0.0	1.7866706809518704	-0.8457109798916671	0.0	1.7637796630857263	-0.8560683461691578	0.0	1.7050115627080982	-0.8653345086181103	0.0	1.5378851346495193	-0.5846995895214436	0.0	1.6927947770282852	-0.6164343032818663	0.0	1.7156993222226138	-0.7628645268443685	0.0	1.7795192204727681	-0.782014058682987	0.0	1.763674774919555	-0.7697090966791815	0.0	1.7070904439826906	-0.7835929167932939	0.0	1.3432248297463816	-0.5551791940040317	0.0	1.2671927154368319	-0.507137170669476	0.0	1.3258347094964844	-0.5157464127443234	0.0	1.341817217725854	-0.5710256127762051	0.0	1.399869640958185	-0.6085809066379573	0.0	1.4384435628817998	-0.661181257023762	0.0	1.3474321074156221	-0.5446367210205637	0.0	1.372305710621834	-0.5730292650205152	0.0	1.3540272650731981	-0.5740073342367289	0.0
86	1.735925925925926	1.5460321679056097	-0.6153421746934555	0.0	1.5415921496515654	-0.6286364005840592	0.0	1.6989467419785893	-0.7234255421592962	0.0	1.7189044562669986	-0.8713069938771792	0.0	1.7958931993384606	-0.8713769529753367	0.0	1.766932338896064	-0.8793036712301039	0.0	1.7111867723776308	-0.8918138310108965	0.0	1.5542216918568246	-0.6053497515405755	0.0	1.704387772275409	-0.6578848463900349	0.0	1.72225799770074	-0.8053042114430903	0.0	1.7911270923152876	-0.8228348047415183	0.0	1.772955903799728	-0.8112849404330826	0.0	1.7113180473582326	-0.8249999977431662	0.0	1.3659209170346136	-0.5526984863710674	0.0	1.2963352573833518	-0.49482987534812767	0.0	1.3545340467473603	-0.5093878832937507	0.0	1.3652196010496036	-0.5695307432863552	0.0	1.4244137776094596	-0.615001752518642	0.0	1.4689608979918625	-0.6693855247976752	0.0	1.3700651318064025	-0.5454290258006353	0.0	1.402788832182553	-0.5822495735576412	0.0	1.3865019674174952	-0.5773286853457277	0.0
87	1.7561111111111114	1.5612221830247148	-0.634169988438758	0.0	1.556223976923167	-0.645442646961114	0.0	1.7048663838768319	-0.7510514988599407	0.0	1.7239503982871385	-0.897256520561264	0.0	1.8048324732302725	-0.8949668293444925	0.0	1.7690506716714895	-0.899985420939425	0.0	1.7164771472872131	-0.9163272625182405	0.0	1.569458727667581	-0.6257148282832401	0.0	1.712662871370267	-0.6977879625181047	0.0	1.7270035610499255	-0.8452101398638852	0.0	1.8023784597867247	-0.8589761192631705	0.0	1.7814236738085265	-0.8494706763280394	0.0	1.7140933448470967	-0.8635192481703964	0.0	1.3902961100969458	-0.5509444902470348	0.0	1.3284045999749414	-0.48471639771169694	0.0	1.38554209545159	-0.5044785605745248	0.0	1.3909762464609883	-0.568891012786979	0.0	1.4487051666614332	-0.6237288412750378	0.0	1.4976480096781801	-0.6814537823431	0.0	1.3936521791779406	-0.5475156052698144	0.0	1.4317223204698208	-0.5939741122440418	0.0	1.4187487889011243	-0.5837192877271552	0.0
88	1.7762962962962965	1.5753237928485375	-0.6519217189974696	0.0	1.5702192048746968	-0.6610854904096635	0.0	1.709960314751351	-0.7762004931642403	0.0	1.7278191353051318	-0.9208285412552825	0.0	1.8129314470578322	-0.9162091661815794	0.0	1.7701524402755642	-0.9179052265813828	0.0	1.7206772039692306	-0.9382557486607489	0.0	1.5833497808168475	-0.6450067780466746	0.0	1.7181420375827499	-0.7346586032893212	0.0	1.7299145332118544	-0.8810939262414601	0.0	1.8126563943611314	-0.8898570867613081	0.0	1.7886124573175113	-0.8833853412043127	0.0	1.7153916539053835	-0.8976635219928155	0.0	1.4156704526379498	-0.5497266495828897	0.0	1.3622855909576312	-0.4765885256923828	0.0	1.4178045121301923	-0.5008993434726374	0.0	1.4181695121678752	-0.5690807967547633	0.0	1.4721691093527582	-0.6338078439335992	0.0	1.5233998666130097	-0.6959624696208523	0.0	1.4176393029613172	-0.5503906717550889	0.0	1.4584816932575415	-0.606785980183784	0.0	1.4502738821184982	-0.5925987820263224	0.0
89	1.7964814814814818	1.5881766135885238	-0.6679728853985583	0.0	1.583293225909806	-0.6750906915757398	0.0	1.7143793648944918	-0.7980635802307785	0.0	1.730563918275208	-0.9412250012871912	0.0	1.8193941376300138	-0.9346809581334975	0.0	1.7704371982087526	-0.9327677859869106	0.0	1.7237617388298017	-0.9568467387808784	0.0	1.5957406390288091	-0.6624700581342691	0.0	1.7214554632752976	-0.7671326395122308	0.0	1.7311208251118158	-0.9116316400382883	0.0	1.821062018165544	-0.9151654155660691	0.0	1.7940910963563765	-0.9123742127399197	0.0	1.7153321757633087	-0.9262114847188413	0.0	1.441254042352548	-0.5487838243661312	0.0	1.3967409417949908	-0.47010299382490844	0.0	1.4501287314291658	-0.49841604850866794	0.0	1.445660008724816	-0.5699355995015306	0.0	1.494115584608073	-0.644169290714227	0.0	1.5452776684194742	-0.7112511313621259	0.0	1.4414303427782325	-0.5534606764142632	0.0	1.4825683625384194	-0.6193822401722167	0.0	1.4797936813880685	-0.6039889777171233	0.0
90	1.8166666666666669	1.5997265072232174	-0.6818567204818199	0.0	1.595260728623568	-0.6871061169111138	0.0	1.7182401187633807	-0.8161178228703256	0.0	1.7323713415800996	-0.9578096279111072	0.0	1.8233927816506261	-0.9500408665026987	0.0	1.7702151150734944	-0.9444412417872035	0.0	1.7258668990800776	-0.9715532270192655	0.0	1.606623256641147	-0.6775245293562517	0.0	1.723261457348175	-0.7942652671662401	0.0	1.7309648794537045	-0.9360401515581513	0.0	1.8266345663756305	-0.9349984044075323	0.0	1.7976624082012684	-0.9361948812169054	0.0	1.714239227112778	-0.9485921608822867	0.0	1.4663338776061308	-0.5477933654353371	0.0	1.4306993490170927	-0.4647678308303704	0.0	1.4815301119663098	-0.4966529850001823	0.0	1.4723748265409364	-0.5710861857236011	0.0	1.5139510261430782	-0.6537765368597707	0.0	1.5627791321661597	-0.7257314816842019	0.0	1.4644997580726644	-0.5561511270553363	0.0	1.5036702132061752	-0.6307759813486508	0.0	1.5061506211170288	-0.6183853063266833	0.0
91	1.8368518518518522	1.6099501795157227	-0.6932279325158845	0.0	1.6060010338412003	-0.6968430926651275	0.0	1.7216024579000273	-0.8301146271464511	0.0	1.7334749159836111	-0.9703203667986093	0.0	1.8244930675365305	-0.9620928900647869	0.0	1.7697847285343402	-0.9530733407365346	0.0	1.7272021012886638	-0.9822538868536808	0.0	1.6160618110924	-0.6897619310189981	0.0	1.7241396682359538	-0.8155831681684594	0.0	1.729943929028898	-0.9541372229476942	0.0	1.8287590439924892	-0.9497590351148458	0.0	1.7993310128007687	-0.9548343536433855	0.0	1.7125552503675383	-0.9648893260708518	0.0	1.4903155088459497	-0.5463964993343946	0.0	1.4632882959453297	-0.4599996654515376	0.0	1.5112747055511968	-0.4951207066660532	0.0	1.4974522834413362	-0.5719802931079457	0.0	1.5312772743983194	-0.6617117839521962	0.0	1.5758801979178452	-0.7380771011092839	0.0	1.4864075909968602	-0.5579492299688242	0.0	1.5216800745119383	-0.6402210818945029	0.0	1.5287033620445563	-0.6357181952020108	0.0
92	1.8570370370370373	1.618798620136535	-0.7017895824472957	0.0	1.6154040971099826	-0.7040226995468026	0.0	1.7244642416038487	-0.8399806424446014	0.0	1.734086032185112	-0.9788201925048878	0.0	1.8228872770357392	-0.9707166189610821	0.0	1.769362480444802	-0.9589934673338533	0.0	1.7279641680432327	-0.9891925569701225	0.0	1.6241086317885485	-0.6988739598835026	0.0	1.7245082407449626	-0.8309871854458094	0.0	1.7285806754513044	-0.9661819204705616	0.0	1.827396773778462	-0.9599125260529473	0.0	1.7990307004203698	-0.9682733894762471	0.0	1.710719192341208	-0.975602520902549	0.0	1.512662173723558	-0.5442276498812518	0.0	1.4937259416514415	-0.4552187404025118	0.0	1.538747399812671	-0.49328037346537895	0.0	1.520213937261468	-0.5719840859383973	0.0	1.5458731375548653	-0.6672113209653776	0.0	1.584927983950574	-0.747288758939025	0.0	1.5067441131848693	-0.5584014241046631	0.0	1.5366713705294037	-0.6470750564260619	0.0	1.547170721947028	-0.6546149296094048	0.0
